<svg width="28" height="28" viewBox="0 0 28 28" fill="none" xmlns="http://www.w3.org/2000/svg">
<g opacity="0.4">
<path fill-rule="evenodd" clip-rule="evenodd" d="M21.7626 8.57281C21.477 8.28732 21.3342 8.14458 21.1856 8.21487C21.1819 8.21665 21.1772 8.21903 21.1735 8.22104C21.0293 8.29986 21.065 8.52542 21.1365 8.97654C21.3688 10.443 21.3172 11.9431 21.0084 13.2557C19.6058 19.2154 13.9541 21.7145 9.80835 21.1179C9.2057 21.0312 8.90439 20.9878 8.70599 21.1495C8.50759 21.3112 8.49361 21.5458 8.46562 22.0148C8.4584 22.1358 8.45457 22.2619 8.45453 22.3931C8.45444 22.6842 8.45439 22.8298 8.5567 22.9323C8.65899 23.0348 8.81412 23.035 9.12436 23.0356C11.1606 23.0391 13.1969 23.0348 15.233 23.0348C16.8286 23.0349 18.1147 23.0349 19.1261 22.899C20.1762 22.7578 21.0604 22.4559 21.7626 21.754C22.5422 20.9748 22.829 19.9025 22.9419 18.8369L23.5401 18.7372C24.1464 18.6362 24.803 18.5632 25.3325 18.2251C26.0521 17.7654 26.4636 17.0125 26.5244 16.1739C26.5442 15.8996 26.5442 15.5706 26.5442 15.1926V15.1346C26.5442 14.7566 26.5442 14.4275 26.5244 14.1532C26.4636 13.3146 26.0521 12.5616 25.3325 12.102C24.8031 11.7639 24.1464 11.6908 23.5401 11.5899L22.9419 11.4903C22.829 10.4245 22.5423 9.35212 21.7626 8.57281ZM23.0439 15.0994C23.044 14.4406 23.044 13.8346 23.0344 13.279C23.3879 13.3378 23.745 13.3866 24.0935 13.4709C24.5122 13.5722 24.7488 13.8663 24.7788 14.2794C24.7935 14.483 24.7941 14.7482 24.7941 15.1635C24.7941 15.5788 24.7935 15.8439 24.7788 16.0476C24.7488 16.4608 24.5122 16.7549 24.0935 16.8561C23.745 16.9404 23.3879 16.9891 23.0344 17.0481C23.044 16.4923 23.044 15.8862 23.0439 15.2274V15.0994Z" fill="#292C31"/>
<path d="M3.261 21.2728C3.2201 21.6698 3.19965 21.8684 3.05149 21.9135C2.90335 21.9588 2.79092 21.8239 2.56604 21.5543C2.00299 20.879 1.71609 20.0075 1.59655 19.1188C1.46057 18.1078 1.46059 16.8223 1.4606 15.2276V15.0995C1.46059 13.5047 1.46057 12.2192 1.59655 11.2082C1.73774 10.1586 2.03978 9.27481 2.74202 8.5729C3.44425 7.87097 4.32844 7.56906 5.37857 7.42794C6.07769 7.33399 6.785 7.3013 7.49313 7.29141C8.22898 7.28112 8.5969 7.27599 8.65 7.43966C8.70309 7.60333 8.38944 7.82391 7.76213 8.26505C6.70793 9.00641 5.62594 10.0662 4.9664 11.6767C4.32156 13.1888 4.20867 14.8336 4.61177 16.3476C4.68976 16.6405 4.72876 16.7869 4.7141 16.9007C4.69942 17.0143 4.62701 17.1418 4.48216 17.3967C3.80514 18.5881 3.40135 19.9106 3.261 21.2728Z" fill="#292C31"/>
</g>
<path d="M19.304 12.8567C18.5247 16.17 16.3847 18.4019 13.1083 19.3172C11.4572 19.7785 9.30595 19.6173 7.94744 18.4847C7.65089 18.8834 7.39705 19.3123 7.1976 19.7851C6.81528 20.6915 6.61264 21.8073 6.74347 23.2545C6.78699 23.7358 6.4321 24.1613 5.95082 24.2048C5.46953 24.2483 5.04409 23.8934 5.00059 23.412C4.84665 21.7093 5.08017 20.3022 5.58517 19.1049C5.90487 18.3471 6.32525 17.6925 6.79849 17.1132C5.99676 15.7061 5.89602 13.9483 6.58048 12.3524C7.39513 10.3498 9.06248 9.43264 10.4326 8.72774C11.9173 7.96391 14.1342 6.92889 13.2721 4.88416C13.1336 4.34339 13.5512 3.79853 14.1094 3.792C18.6356 3.73919 20.1566 9.23222 19.304 12.8567Z" fill="#292C31"/>
</svg>
