<svg width="28" height="28" viewBox="0 0 28 28" fill="none" xmlns="http://www.w3.org/2000/svg">
<path opacity="0.4" fill-rule="evenodd" clip-rule="evenodd" d="M14 4.08333C13.241 4.08333 12.5032 4.16841 11.7952 4.32906C11.1668 4.47163 10.5419 4.07784 10.3993 3.44947C10.2567 2.82112 10.6505 2.19615 11.2789 2.05357C12.1551 1.85473 13.0661 1.75 14 1.75C20.7655 1.75 26.25 7.23451 26.25 14C26.25 17.0913 25.1044 19.9149 23.2167 22.0695H23.9167C24.561 22.0695 25.0833 22.5918 25.0833 23.2361C25.0833 23.8805 24.561 24.4028 23.9167 24.4028H20.1287C19.4844 24.4028 18.9621 23.8805 18.9621 23.2361V19.8333C18.9621 19.189 19.4844 18.6667 20.1287 18.6667C20.7731 18.6667 21.2954 19.189 21.2954 19.8333V20.7172C22.9237 18.9498 23.9167 16.5907 23.9167 14C23.9167 8.52318 19.4768 4.08333 14 4.08333ZM2.91667 4.78304C2.91667 4.1387 3.43901 3.61637 4.08333 3.61637H7.84259C8.48693 3.61637 9.00926 4.1387 9.00926 4.78304V8.16667C9.00926 8.81099 8.48693 9.33333 7.84259 9.33333C7.19826 9.33333 6.67592 8.81099 6.67592 8.16667V7.31403C5.06459 9.07795 4.08333 11.4245 4.08333 14C4.08333 19.4768 8.52318 23.9167 14 23.9167C14.759 23.9167 15.4968 23.8316 16.2048 23.671C16.8331 23.5284 17.4581 23.9221 17.6007 24.5505C17.7432 25.1789 17.3495 25.8039 16.7211 25.9464C15.8448 26.1452 14.9339 26.25 14 26.25C7.23451 26.25 1.75 20.7655 1.75 14C1.75 10.9178 2.88883 8.10185 4.76659 5.94971H4.08333C3.43901 5.94971 2.91667 5.42737 2.91667 4.78304Z" fill="#292C31"/>
<path d="M13.4306 7.50228C13.7583 7.22141 14.2418 7.22141 14.5695 7.50228L14.5767 7.50885C14.702 7.62267 15.0534 7.94172 15.2493 8.13295C15.6478 8.522 16.1812 9.07425 16.7171 9.72497C17.2508 10.3731 17.8015 11.1363 18.2221 11.9474C18.6388 12.751 18.9584 13.6598 18.9584 14.5833C18.9584 17.3217 16.7384 19.5416 14 19.5416C11.2616 19.5416 9.04169 17.3217 9.04169 14.5833C9.04169 13.6598 9.36126 12.751 9.77792 11.9474C10.1985 11.1363 10.7492 10.3731 11.2829 9.72497C11.8188 9.07425 12.3522 8.522 12.7508 8.13295C12.9466 7.94174 13.2979 7.62275 13.4233 7.5089L13.4306 7.50228Z" fill="#292C31"/>
</svg>
